<?xml version="1.0" encoding="UTF-8" standalone="no"?>
<!-- Created with Inkscape (http://www.inkscape.org/) -->

<svg
   width="509.70926"
   height="329.24072"
   viewBox="0 0 134.86057 87.111608"
   version="1.1"
   id="svg1"
   xml:space="preserve"
   xmlns="http://www.w3.org/2000/svg"
   xmlns:svg="http://www.w3.org/2000/svg"><defs
     id="defs1" /><g
     id="layer1"
     transform="translate(-144.47649,-67.940216)"><path
       style="fill:#e6e6e6"
       d="m 206.91401,154.82219 c -9.15347,-1.06199 -18.35204,-4.95504 -25.13911,-10.63947 l -1.87595,-1.57117 -0.13229,-26.87145 -0.1323,-26.871442 -2.01571,1.69811 c -2.05156,1.728312 -19.66689,17.081662 -20.35912,17.744802 -0.20863,0.19987 -1.06269,0.941 -1.89791,1.64697 -0.83521,0.70596 -1.45103,1.39285 -1.36848,1.52642 0.0825,0.13356 4.36754,3.93967 9.52222,8.45802 l 9.37213,8.21519 v 4.12092 c 0,3.8994 -0.0249,4.0996 -0.46302,3.72428 -3.25391,-2.78742 -27.85914,-24.36116 -27.94762,-24.50432 -0.0661,-0.10694 8.73614,-7.92896 19.56052,-17.382262 13.92286,-12.159313 20.39924,-17.644085 22.13676,-18.747354 5.07584,-3.223006 11.11294,-5.622235 17.16691,-6.822375 2.51008,-0.497598 3.90424,-0.599408 8.30791,-0.606692 3.182,-0.0053 6.13553,0.130529 7.40833,0.340608 8.62471,1.423526 16.48473,4.987937 23.0849,10.468673 l 1.91823,1.592887 v 26.693125 c 0,23.72931 0.0445,26.67605 0.40061,26.53939 0.78924,-0.30286 25.29029,-21.9263 25.21183,-22.25074 -0.0441,-0.1823 -4.27711,-3.99492 -9.40671,-8.47248 l -9.32657,-8.141036 v -4.099626 c 0,-3.865287 0.0265,-4.079028 0.46302,-3.739289 0.25467,0.198184 2.24896,1.916417 4.43177,3.818295 10.00652,8.718644 23.30377,20.313306 23.49873,20.489936 0.11847,0.10733 -2.44137,2.51889 -5.68854,5.35902 -33.21504,29.05156 -31.93728,27.94957 -34.82273,30.03278 -2.83268,2.04512 -8.84381,5.0466 -12.25577,6.11956 -6.29175,1.97856 -13.87596,2.80086 -19.65204,2.13072 z m 9.89431,-6.45406 c 6.48002,-0.87458 12.23668,-2.92673 17.09677,-6.0947 l 2.26359,-1.47548 -6.70362,-6.88121 c -3.68699,-3.78467 -8.19189,-8.42651 -10.0109,-10.3152 l -3.3073,-3.43399 -1.41302,0.42924 c -0.94867,0.28817 -2.08791,0.39858 -3.46663,0.33597 -6.30634,-0.28638 -10.49732,-6.44364 -8.56289,-12.58034 l 0.44807,-1.42147 -2.22817,-2.2398 c -1.22549,-1.2319 -2.31359,-2.23981 -2.418,-2.23981 -0.1044,0 -0.61459,0.8632 -1.13375,1.91823 -2.26797,4.60892 -2.25338,9.52308 0.0421,14.18719 1.41359,2.8722 4.49267,5.95679 7.27194,7.28497 2.34977,1.12293 4.90998,1.73087 7.35927,1.74752 l 1.71979,0.0117 2.44885,2.61774 2.44884,2.61774 -0.86134,0.27678 c -1.57471,0.50601 -5.59333,0.86691 -7.60822,0.68328 -9.1724,-0.83596 -16.58848,-6.68122 -19.62751,-15.47015 -0.84711,-2.44985 -0.86899,-2.62415 -0.86374,-6.87916 0.005,-4.20204 0.0372,-4.46056 0.85325,-6.89915 0.46632,-1.39343 1.44771,-3.53158 2.18086,-4.751441 l 1.33302,-2.217926 -3.77462,-3.781367 c -2.07605,-2.079751 -3.86546,-3.781366 -3.97648,-3.781366 -0.11103,0 -0.20186,11.17208 -0.20186,24.82683 v 24.82684 l 1.65364,1.22657 c 7.90695,5.86487 19.27397,8.78979 29.03802,7.47197 z m 20.90209,-40.34274 V 83.172369 l -2.14861,-1.567516 c -4.95068,-3.611782 -12.45661,-6.447771 -19.12362,-7.225541 -5.15494,-0.601372 -11.45832,0.01 -16.69548,1.619323 -3.62514,1.113962 -9.40216,3.933811 -11.61507,5.669484 -0.47417,0.371907 -0.0977,0.809612 6.66193,7.744431 3.94048,4.042635 8.46317,8.638476 10.05041,10.21298 l 2.88591,2.86274 1.69695,-0.44369 c 4.60597,-1.20426 9.30048,1.03015 11.28871,5.37303 0.89073,1.9456 1.10335,4.79251 0.49649,6.64787 -0.23703,0.72466 -0.43096,1.47642 -0.43096,1.67058 0,0.3714 4.41314,4.89725 4.57614,4.69302 1.14419,-1.43364 2.49321,-5.31075 2.72843,-7.84154 0.34176,-3.67726 -1.17768,-8.38937 -3.67827,-11.40705 -1.31228,-1.583654 -4.17005,-3.767345 -5.98553,-4.573695 -1.82,-0.80836 -4.16331,-1.290926 -6.2899,-1.295298 l -1.90225,-0.0039 -2.51283,-2.579688 c -1.38205,-1.418828 -2.42363,-2.670444 -2.3146,-2.781369 0.38191,-0.388584 4.33354,-0.988944 6.50932,-0.988944 4.25853,0 8.55286,1.256829 12.17678,3.5638 2.15364,1.370994 5.58575,4.94024 6.89665,7.172206 1.20822,2.057158 2.24621,4.558298 2.79153,6.726498 0.55947,2.22449 0.47438,8.4189 -0.14539,10.58333 -0.6253,2.18374 -1.97654,5.1714 -3.03407,6.70846 -0.45109,0.65565 -0.82017,1.28821 -0.82017,1.40569 0,0.27182 7.4647,7.76085 7.73564,7.76085 0.11102,0 0.20186,-11.18387 0.20186,-24.85303 z"
       id="path1" /></g></svg>
